<?xml version="1.0" encoding="UTF-8"?>
<svg xmlns="http://www.w3.org/2000/svg" width="40" height="40" viewBox="0 0 40 40">
  <circle cx="20" cy="20" r="20" fill="#0CB8B6"/>
  <path d="M20,8c-6.63,0-12,5.37-12,12s5.37,12,12,12s12-5.37,12-12S26.63,8,20,8z M20,28c-4.41,0-8-3.59-8-8s3.59-8,8-8s8,3.59,8,8 S24.41,28,20,28z" fill="white"/>
  <path d="M20,15c-2.76,0-5,2.24-5,5s2.24,5,5,5s5-2.24,5-5S22.76,15,20,15z" fill="white"/>
  <path d="M24,20h-8" stroke="#0CB8B6" stroke-width="2" stroke-linecap="round"/>
  <path d="M20,16v8" stroke="#0CB8B6" stroke-width="2" stroke-linecap="round"/>
</svg>